#N canvas 50 50 1200 900 12;
#X obj 130 -80 keyboard 16 80 4 2 0 0 empty empty;
#X obj 130 200 unpack f f;
#X obj 20 200 notein;
#X text 513 -135 ADSR:;
#X obj 591 -115 vsl 17 100 0 2000 0 0 atk empty empty 0 -9 0 10 #e4e4e4 #4d4d4d #373737 0 1;
#X obj 626 -115 vsl 17 100 0 2000 0 0 dec empty empty 0 -9 0 10 #e4e4e4 #4d4d4d #373737 0 1;
#X obj 661 -115 vsl 17 100 0 1 0 0 sus empty empty 0 -9 0 10 #e4e4e4 #4d4d4d #373737 0 1;
#X obj 696 -115 vsl 17 100 0 5000 0 0 rel empty empty 0 -9 0 10 #e4e4e4 #4d4d4d #373737 0 1;
#X text 591 -135 atk;
#X text 626 -135 dec;
#X text 661 -135 sus;
#X text 696 -135 rel;
#X text 761 -135 Velocity randomization:;
#X obj 791 -115 vsl 17 100 0 1 0 0 velrand empty empty 0 -9 0 10 #e4e4e4 #4d4d4d #373737 0 1;
#X text 821 -115 0=identic;
#X text 821 -95 1=haos;
#X text 921 -135 Timing jitter (max 30ms):;
#X obj 941 -109 vsl 17 100 0 1 0 0 jitter empty empty 0 -9 0 10 #e4e4e4 #4d4d4d #373737 0 1;
#X text 971 -115 0=cuantizat;
#X text 971 -95 1=uman;
#X obj 588 35 s atk;
#X obj 623 35 s dec;
#X obj 658 35 s sus;
#X obj 693 35 s rel;
#X obj 788 35 s velrand;
#X obj 938 35 s jitter;
#X obj 130 250 moses 1;
#X obj 200 290 t f b;
#X obj 290 290 random 61;
#X obj 290 336 - 30;
#X obj 290 366 *;
#X obj 380 320 r velrand;
#X obj 200 380 +;
#X obj 200 410 clip 0 127;
#X obj 480 290 random 31;
#X obj 480 350 *;
#X obj 560 320 r jitter;
#X obj 30 651 pipe 0;
#X obj 110 651 pipe 0;
#X obj 30 696 poly 8 1;
#X obj 30 731 pack f f f;
#X obj 30 766 clone -s 1 synth_2_chime 8;
#N canvas 100 100 500 350 effects 1;
#X obj 50 30 inlet~;
#X obj 50 70 +~;
#X obj 50 110 delwrite~ chime_echo 1000;
#X obj 150 150 delread~ chime_echo 300;
#X obj 280 150 delread~ chime_echo 450;
#X obj 200 200 +~;
#X obj 150 280 outlet~;
#X obj 280 280 outlet~;
#X obj 200 240 *~ 0.15;
#X connect 0 0 1 0;
#X connect 1 0 2 0;
#X connect 3 0 6 0;
#X connect 3 0 5 0;
#X connect 4 0 7 0;
#X connect 4 0 5 1;
#X connect 5 0 8 0;
#X connect 8 0 1 1;
#X restore 30 801 pd effects;
#X obj 475 832 dac~;
#X obj 80 35 bng 35 250 50 0 empty empty empty 0 -10 0 10 #e4e4e4 #4d4d4d #373737;
#X msg 130 100 60 100;
#X msg 175 100 60 0;
#X text 116 34 test C4 (auto note-off dupa 200ms);
#X obj 700 79 loadbang;
#X obj 700 109 t b b b b b b;
#X msg 650 149 5;
#X msg 685 149 1800;
#X msg 720 149 0;
#X msg 750 149 100;
#X msg 785 149 0;
#X msg 820 149 0;
#X obj 80 145 delay 200;
#X floatatom 229 462 7 0 0 0 vel-out - - 0;
#X text 740 249 DRUMS (kick/snare/hat):;
#X obj 740 295 tgl 25 0 empty empty empty 0 -10 0 10 #e4e4e4 #4d4d4d #373737 0 1;
#X text 775 300 on/off;
#X text 740 335 Tempo:;
#X obj 740 380 nbx 5 14 30 200 0 1 empty empty empty 0 -8 0 10 #fcfcfc #000000 #000000 200 256;
#X text 799 379 BPM;
#X text 830 270 Vol:;
#X obj 830 290 vsl 17 80 0 1 0 0 empty empty empty 0 -9 0 10 #e4e4e4 #4d4d4d #373737 0 1;
#X text 825 390 (urca!);
#N canvas 100 100 700 550 drums 1;
#X obj 30 30 inlet;
#X obj 100 30 inlet;
#X obj 100 70 expr 60000/$f1/4;
#X obj 30 110 metro 150;
#X obj 30 150 counter 0 15;
#X obj 30 190 sel 0 8;
#X obj 200 190 sel 4 12;
#X obj 380 190 sel 0 2 4 6 8 10 12 14;
#X obj 30 240 t b b;
#X msg 90 290 120 0 \, 50 80;
#X obj 90 330 vline~;
#X obj 90 370 osc~;
#X msg 30 290 0 0 0 \, 0.6 5 0 \, 0 250 5;
#X obj 30 330 vline~;
#X obj 60 420 *~;
#X msg 200 240 0 0 0 \, 0.5 1 0 \, 0 120 1;
#X obj 200 290 vline~;
#X obj 260 330 noise~;
#X obj 230 380 *~;
#X msg 380 240 0 0 0 \, 0.3 1 0 \, 0 35 1;
#X obj 380 290 vline~;
#X obj 440 330 noise~;
#X obj 440 370 hip~ 5000;
#X obj 410 420 *~;
#X obj 30 480 outlet~;
#X text 30 10 sequencer + kick/snare/hat synth;
#X connect 0 0 3 0;
#X connect 1 0 2 0;
#X connect 2 0 3 1;
#X connect 3 0 4 0;
#X connect 4 0 5 0;
#X connect 4 0 6 0;
#X connect 4 0 7 0;
#X connect 5 0 8 0;
#X connect 5 1 8 0;
#X connect 6 0 15 0;
#X connect 6 1 15 0;
#X connect 7 0 19 0;
#X connect 7 1 19 0;
#X connect 7 2 19 0;
#X connect 7 3 19 0;
#X connect 7 4 19 0;
#X connect 7 5 19 0;
#X connect 7 6 19 0;
#X connect 7 7 19 0;
#X connect 8 0 12 0;
#X connect 8 1 9 0;
#X connect 9 0 10 0;
#X connect 10 0 11 0;
#X connect 11 0 14 0;
#X connect 12 0 13 0;
#X connect 13 0 14 1;
#X connect 14 0 24 0;
#X connect 15 0 16 0;
#X connect 16 0 18 1;
#X connect 17 0 18 0;
#X connect 18 0 24 0;
#X connect 19 0 20 0;
#X connect 20 0 23 1;
#X connect 21 0 22 0;
#X connect 22 0 23 0;
#X connect 23 0 24 0;
#X restore 740 425 pd drums;
#X obj 740 470 *~;
#X text 900 278 GUITAR (live):;
#X text 900 295 Vol:;
#X obj 900 315 vsl 17 80 0 1 0 0 empty empty empty 0 -9 0 10 #e4e4e4 #4d4d4d #373737 0 1;
#X text 970 295 Reverb:;
#X obj 980 315 vsl 17 80 0 1 0 0 empty empty empty 0 -9 0 10 #e4e4e4 #4d4d4d #373737 0 1;
#X text 900 410 (chitara prin audio iface);
#X text 900 425 canal 1 \, urca Vol);
#X obj 900 726 *~;
#N canvas 100 100 700 550 gtr_fx 1;
#X obj 30 30 inlet~;
#X obj 200 30 inlet;
#X obj 30 460 outlet~;
#X obj 250 460 outlet~;
#X obj 30 80 +~;
#X obj 30 110 delwrite~ gtr_rev 1500;
#X obj 30 160 delread~ gtr_rev 230;
#X obj 130 160 delread~ gtr_rev 410;
#X obj 250 160 delread~ gtr_rev 670;
#X obj 370 160 delread~ gtr_rev 950;
#X obj 70 220 +~;
#X obj 290 220 +~;
#X obj 180 270 +~;
#X obj 180 310 *~ 0.15;
#X obj 70 360 *~;
#X obj 290 360 *~;
#X obj 30 410 +~;
#X obj 250 410 +~;
#X text 30 10 multi-tap reverb (4 delay taps + feedback);
#X connect 0 0 4 0;
#X connect 0 0 16 0;
#X connect 0 0 17 0;
#X connect 1 0 14 1;
#X connect 1 0 15 1;
#X connect 4 0 5 0;
#X connect 6 0 10 0;
#X connect 7 0 10 1;
#X connect 8 0 11 0;
#X connect 9 0 11 1;
#X connect 10 0 12 0;
#X connect 10 0 14 0;
#X connect 11 0 12 1;
#X connect 11 0 15 0;
#X connect 12 0 13 0;
#X connect 13 0 4 1;
#X connect 14 0 16 1;
#X connect 15 0 17 1;
#X connect 16 0 2 0;
#X connect 17 0 3 0;
#X restore 900 766 pd gtr_fx;
#X text 740 599 CHIME SEQUENCER:;
#X obj 740 634 tgl 25 0 empty empty empty 0 -10 0 10 #e4e4e4 #4d4d4d #373737 0 1;
#X text 767 640 on/off (Daughter F#m arpeggio);
#N canvas 100 100 600 500 chime_seq 1;
#X obj 30 30 inlet;
#X obj 200 30 inlet;
#X obj 30 450 outlet;
#X obj 200 70 expr 60000/$f1/2;
#X obj 30 150 counter 0 7;
#X obj 30 200 sel 0 1 2 3 4 5 6 7;
#X msg 30 290 66 100;
#X msg 90 290 69 100;
#X msg 150 290 73 100;
#X msg 210 290 76 100;
#X msg 270 290 78 100;
#X msg 330 290 76 100;
#X msg 390 290 73 100;
#X msg 450 290 69 100;
#X text 30 5 F#m arpeggio: F#4 A4 C#5 E5 F#5 E5 C#5 A5;
#X obj 30 110 metro 190;
#X connect 0 0 15 0;
#X connect 1 0 3 0;
#X connect 3 0 15 1;
#X connect 4 0 5 0;
#X connect 5 0 6 0;
#X connect 5 1 7 0;
#X connect 5 2 8 0;
#X connect 5 3 9 0;
#X connect 5 4 10 0;
#X connect 5 5 11 0;
#X connect 5 6 12 0;
#X connect 5 7 13 0;
#X connect 6 0 2 0;
#X connect 7 0 2 0;
#X connect 8 0 2 0;
#X connect 9 0 2 0;
#X connect 10 0 2 0;
#X connect 11 0 2 0;
#X connect 12 0 2 0;
#X connect 13 0 2 0;
#X connect 15 0 4 0;
#X restore 740 668 pd chime_seq;
#X obj 900 686 adc~ 2;
#X connect 0 0 1 0;
#X connect 1 0 37 0;
#X connect 1 1 26 0;
#X connect 2 0 37 0;
#X connect 2 1 26 0;
#X connect 4 0 20 0;
#X connect 5 0 21 0;
#X connect 6 0 22 0;
#X connect 7 0 23 0;
#X connect 13 0 24 0;
#X connect 13 0 30 1;
#X connect 17 0 25 0;
#X connect 17 0 35 1;
#X connect 26 0 38 0;
#X connect 26 1 27 0;
#X connect 27 0 32 0;
#X connect 27 1 28 0;
#X connect 27 1 34 0;
#X connect 28 0 29 0;
#X connect 29 0 30 0;
#X connect 30 0 32 1;
#X connect 31 0 30 1;
#X connect 32 0 33 0;
#X connect 33 0 38 0;
#X connect 33 0 57 0;
#X connect 34 0 35 0;
#X connect 35 0 37 1;
#X connect 35 0 38 1;
#X connect 36 0 35 1;
#X connect 37 0 39 0;
#X connect 38 0 39 1;
#X connect 39 0 40 0;
#X connect 39 1 40 1;
#X connect 39 2 40 2;
#X connect 40 0 41 0;
#X connect 41 0 42 0;
#X connect 41 0 43 0;
#X connect 41 0 43 1;
#X connect 42 0 43 0;
#X connect 42 1 43 1;
#X connect 44 0 45 0;
#X connect 44 0 56 0;
#X connect 45 0 1 0;
#X connect 46 0 1 0;
#X connect 48 0 49 0;
#X connect 49 0 50 0;
#X connect 49 1 51 0;
#X connect 49 2 52 0;
#X connect 49 3 53 0;
#X connect 49 4 54 0;
#X connect 49 5 55 0;
#X connect 50 0 20 0;
#X connect 51 0 21 0;
#X connect 52 0 22 0;
#X connect 53 0 23 0;
#X connect 54 0 24 0;
#X connect 55 0 25 0;
#X connect 56 0 46 0;
#X connect 59 0 67 0;
#X connect 62 0 67 1;
#X connect 62 0 81 1;
#X connect 65 0 68 1;
#X connect 67 0 68 0;
#X connect 68 0 43 0;
#X connect 68 0 43 1;
#X connect 71 0 76 1;
#X connect 73 0 77 1;
#X connect 76 0 77 0;
#X connect 77 0 43 0;
#X connect 77 1 43 1;
#X connect 79 0 81 0;
#X connect 81 0 1 0;
#X connect 82 0 76 0;
