#N canvas 0 50 450 300 effects 1;
#X obj 339 80 inlet~;
#X obj 192 222 delwrite~ ecou 1000;
#X obj 327 222 delread~ ecou 300;
#X obj 453 222 delread~ ecou 450;
#X obj 327 311 *~ 0.4;
#X obj 337 387 outlet~;
#X obj 422 403 outlet~;
#X connect 0 0 1 0;
#X connect 0 1 2 0;
#X connect 0 1 3 0;
#X connect 2 0 4 0;
#X connect 4 0 1 0;
#X connect 4 0 5 0;
#X connect 4 0 6 0;
