#N canvas 100 100 600 500 12;
#X obj 50 50 inlet;
#X obj 50 90 unpack f f;
#X obj 70 130 mtof;
#X obj 70 165 t f f;
#X obj 70 200 cycle~;
#X obj 200 165 * 2;
#X obj 200 200 cycle~;
#X obj 70 240 +~;
#X obj 70 280 onepole~ 1500;
#X obj 70 320 *~;
#X obj 250 200 adsr~ 5 1800 0 100;
#X obj 250 130 r atk;
#X obj 295 130 r dec;
#X obj 340 130 r sus;
#X obj 385 130 r rel;
#X obj 70 360 *~ 0.3;
#X obj 70 400 outlet~;
#X connect 0 0 1 0;
#X connect 1 0 2 0;
#X connect 1 1 10 0;
#X connect 2 0 3 0;
#X connect 3 0 4 0;
#X connect 3 1 5 0;
#X connect 4 0 7 0;
#X connect 5 0 6 0;
#X connect 6 0 7 1;
#X connect 7 0 8 0;
#X connect 8 0 9 0;
#X connect 9 0 15 0;
#X connect 10 0 9 1;
#X connect 11 0 10 2;
#X connect 12 0 10 3;
#X connect 13 0 10 4;
#X connect 14 0 10 5;
#X connect 15 0 16 0;
