#N canvas 827 239 527 327 12;
#X obj 478 345 osc~;
#X floatatom 582 214 8 0 0 0 - - - 16;
#X obj 478 387 selector~ 3;
#X obj 528 345 saw~;
#X obj 478 788 *~;
#X obj 616 285 bng 25 250 50 0 empty empty empty 17 7 0 10 #e4e4e4 #4d4d4d #373737;
#N canvas 197 104 970 664 groove~ 0;
#X obj 202 87 soundfiler;
#X obj 40 194 tabread4~ waveloop;
#X floatatom 202 111 8 0 0 0 - - - 0;
#X obj 202 164 expr 44100 / $f1;
#X floatatom 202 194 8 0 0 0 - - - 0;
#X obj 202 218 s normalfreq;
#X obj 42 64 r normalfreq;
#X obj 42 137 phasor~;
#X obj 42 164 *~;
#X obj 42 102 *~ 1;
#X obj 94 103 r speed;
#X obj 202 29 inlet;
#X obj 40 225 outlet~;
#X msg 202 64 read -resize loop.wav waveloop;
#X connect 0 0 2 0;
#X connect 1 0 12 0;
#X connect 2 0 3 0;
#X connect 2 0 8 1;
#X connect 3 0 4 0;
#X connect 4 0 5 0;
#X connect 6 0 9 0;
#X connect 7 0 8 0;
#X connect 8 0 1 0;
#X connect 9 0 7 0;
#X connect 10 0 9 1;
#X connect 11 0 13 0;
#X connect 13 0 0 0;
#X restore 616 345 pd groove~;
#X obj 478 721 *~;
#X obj 789 417 inlet~;
#X obj 478 872 outlet~;
#X obj 735 360 adsr~ 10 10 0.4 250;
#X obj 582 111 inlet;
#X obj 585 168 unpack f f f;
#X obj 763 325 r atk;
#X obj 799 325 r dec;
#X obj 831 325 r sus;
#X obj 868 325 r rel;
#X obj 392 503 lowpass~;
#X msg 455 468 100;
#X obj 490 826 hip~ 5;
#X connect 0 0 2 1;
#X connect 1 0 0 0;
#X connect 1 0 3 0;
#X connect 1 0 5 0;
#X connect 2 0 17 0;
#X connect 3 0 2 2;
#X connect 4 0 19 0;
#X connect 5 0 6 0;
#X connect 6 0 2 3;
#X connect 7 0 4 0;
#X connect 8 0 7 1;
#X connect 10 0 4 1 32.................8A...rv+++ee....K7++++H....;
#X connect 11 0 12 0;
#X connect 12 0 2 0;
#X connect 12 1 1 0;
#X connect 12 2 10 0;
#X connect 13 0 10 2;
#X connect 14 0 10 3;
#X connect 15 0 10 4;
#X connect 16 0 10 5;
#X connect 17 0 7 0;
#X connect 18 0 17 2;
#X connect 19 0 9 0;
